<?xml version="1.0" standalone="no"?>
<!DOCTYPE svg PUBLIC "-//W3C//DTD SVG 20010904//EN"
 "http://www.w3.org/TR/2001/REC-SVG-20010904/DTD/svg10.dtd">
<svg version="1.0" xmlns="http://www.w3.org/2000/svg"
 width="300.000000pt" height="300.000000pt" viewBox="0 0 300.000000 300.000000"
 preserveAspectRatio="xMidYMid meet">
<metadata>
Created by potrace 1.10, written by Peter Selinger 2001-2011
</metadata>
<g transform="translate(0.000000,300.000000) scale(0.100000,-0.100000)"
fill="#000000" stroke="none">
<path d="M1440 2907 c-3 -2 -39 -7 -80 -10 -210 -16 -439 -98 -647 -233 -115
-74 -301 -260 -376 -374 -103 -159 -159 -286 -203 -455 -70 -272 -43 -633 67
-871 16 -36 29 -66 29 -69 0 -16 122 -212 166 -266 117 -143 349 -339 403
-339 10 0 26 9 37 21 25 28 15 41 -96 120 -296 213 -483 519 -538 879 -9 59
-9 333 0 387 38 223 112 399 247 587 126 176 352 351 554 430 187 73 287 91
497 91 186 0 255 -10 411 -60 330 -106 620 -360 769 -675 17 -36 35 -72 39
-80 17 -33 68 -224 79 -295 9 -63 9 -325 0 -385 -13 -89 -57 -252 -82 -305
-45 -96 -59 -125 -84 -167 -27 -48 -141 -208 -147 -208 -2 0 -29 27 -61 60
-91 95 -120 83 -138 -60 -3 -19 -10 -69 -16 -110 -28 -190 -26 -197 58 -187
42 5 252 33 293 40 10 2 24 9 33 16 30 25 18 56 -44 115 l-60 57 33 42 c17 23
35 44 38 47 32 26 164 268 201 370 98 264 109 560 34 850 -36 136 -122 319
-207 439 -63 90 -190 224 -277 293 -191 153 -452 262 -700 293 -63 8 -227 17
-232 12z m192 -37 c188 -25 326 -64 463 -130 100 -49 193 -105 215 -130 3 -3
23 -18 45 -34 64 -45 227 -218 282 -298 69 -101 138 -235 174 -341 34 -99 35
-104 50 -202 5 -38 14 -89 20 -113 12 -54 12 -173 0 -243 -6 -30 -15 -88 -22
-129 -16 -107 -69 -261 -124 -364 -45 -86 -112 -196 -124 -206 -4 -3 -23 -28
-44 -56 -44 -61 -42 -71 26 -142 26 -28 47 -53 47 -57 0 -12 -66 -33 -125 -40
-33 -4 -71 -9 -85 -11 -72 -12 -127 -14 -139 -5 -13 8 -12 28 3 148 22 175 24
181 49 189 15 5 27 0 41 -17 29 -34 81 -69 101 -69 20 0 95 76 116 118 8 15
17 29 20 32 17 13 105 195 131 270 54 153 71 250 74 430 3 156 -4 226 -35 365
-21 96 -82 248 -128 322 -18 29 -33 55 -33 58 0 18 -156 217 -191 245 -4 3
-33 28 -65 57 -106 92 -245 176 -374 226 -36 13 -74 28 -85 32 -28 11 -31 12
-110 29 -38 8 -83 18 -100 22 -16 3 -100 8 -185 10 -134 3 -171 0 -270 -21
-63 -13 -140 -33 -170 -44 -30 -11 -75 -27 -99 -36 -38 -14 -109 -50 -206
-103 -16 -10 -34 -22 -40 -28 -5 -5 -36 -29 -67 -53 -62 -46 -195 -181 -224
-227 -10 -16 -21 -31 -24 -34 -37 -32 -139 -232 -177 -345 -56 -165 -67 -242
-68 -445 0 -257 23 -364 131 -595 31 -68 96 -178 114 -195 3 -3 18 -23 34 -45
48 -66 186 -198 261 -251 69 -48 85 -62 85 -76 1 -39 -147 65 -283 199 -91 90
-204 248 -266 370 -78 155 -141 422 -141 594 0 70 26 256 45 319 8 25 23 77
35 115 19 64 105 253 120 265 4 3 27 37 52 75 42 66 218 255 283 303 17 13 50
38 75 57 57 42 202 119 286 151 205 77 441 109 626 84z"/>
<path d="M2380 607 c0 -1 34 -36 75 -77 47 -46 75 -68 75 -58 0 20 -116 138
-136 138 -8 0 -14 -1 -14 -3z"/>
<path d="M2358 595 c-12 -19 -29 -136 -23 -155 9 -28 44 -34 117 -21 86 15
102 35 23 27 -33 -3 -75 -8 -92 -12 -37 -7 -38 -4 -22 60 11 44 9 119 -3 101z"/>
<path d="M725 2291 c-201 -53 -335 -272 -296 -482 6 -35 13 -89 15 -119 6 -81
31 -133 91 -188 82 -75 126 -83 285 -52 120 23 229 90 267 164 l16 31 -23 -20
c-12 -11 -43 -40 -69 -65 -52 -50 -100 -70 -232 -96 -74 -15 -92 -16 -133 -4
-57 16 -130 78 -148 125 -6 19 -16 35 -20 35 -4 0 -8 21 -8 48 0 26 -7 80 -16
121 -29 140 15 280 118 382 82 79 117 94 223 94 77 0 96 -3 135 -25 25 -14 47
-28 50 -31 3 -3 15 -11 27 -18 24 -12 60 -6 173 29 114 36 299 59 393 49 86
-10 289 -55 321 -71 41 -22 99 -12 154 25 81 55 188 62 282 19 58 -26 149
-115 177 -172 44 -90 56 -196 34 -309 -6 -29 -11 -70 -11 -90 0 -43 -32 -115
-57 -130 -10 -6 -14 -11 -9 -11 19 0 -69 -57 -107 -70 -43 -13 -76 -11 -192
14 -93 21 -148 50 -203 110 -53 57 -68 66 -48 28 21 -40 90 -100 146 -125 109
-50 271 -67 335 -36 92 45 153 135 160 237 3 31 10 87 16 124 11 62 8 116 -14
204 -23 93 -122 209 -215 251 -107 50 -250 33 -347 -41 -23 -18 -35 -21 -54
-14 -53 19 -255 68 -313 75 -156 20 -295 4 -499 -55 -96 -28 -96 -28 -120 -9
-67 56 -206 89 -284 68z"/>
<path d="M718 2216 c-20 -6 -43 -17 -50 -24 -6 -6 -17 -12 -22 -12 -15 0 -86
-69 -86 -82 0 -6 -6 -19 -14 -27 -17 -18 -56 -153 -56 -191 0 -46 21 -63 67
-55 53 8 71 23 76 60 11 77 22 101 69 147 42 41 54 48 89 48 75 0 128 -47 158
-140 18 -53 19 -70 10 -104 -13 -48 -49 -116 -61 -116 -5 0 -7 -4 -4 -9 3 -5
-5 -16 -19 -25 -22 -14 -25 -24 -25 -72 0 -38 3 -53 11 -48 7 4 9 24 6 49 -4
38 -1 44 19 54 33 15 80 91 94 153 25 100 -31 231 -113 268 -78 36 -137 22
-196 -46 -43 -49 -59 -90 -60 -161 -1 -28 -5 -33 -26 -33 -14 0 -34 -5 -45
-12 -30 -19 -35 -3 -21 80 29 169 122 270 260 280 78 5 133 -14 194 -68 l38
-33 68 22 c199 63 270 75 421 75 151 0 222 -12 421 -75 l68 -22 38 33 c62 55
116 73 195 68 137 -10 230 -111 259 -280 14 -83 9 -99 -21 -80 -11 7 -31 12
-45 12 -23 0 -25 4 -25 43 -1 75 -57 169 -122 203 -66 34 -161 2 -207 -71 -42
-67 -57 -135 -42 -200 14 -63 62 -141 95 -156 20 -10 23 -16 19 -54 -3 -25 -1
-45 6 -49 8 -5 11 9 11 46 0 49 -3 57 -37 88 -71 67 -96 183 -57 265 24 51 87
112 121 116 51 7 73 -2 121 -49 47 -47 72 -100 72 -155 0 -32 26 -48 82 -50
39 -2 42 0 51 30 17 56 -30 208 -80 263 -13 14 -23 28 -23 32 0 4 -30 22 -67
40 -57 28 -79 33 -134 32 -67 0 -134 -24 -175 -62 -34 -32 -54 -33 -138 -8
-44 14 -99 28 -121 32 -22 3 -44 10 -50 14 -20 14 -195 33 -257 26 -120 -11
-243 -37 -335 -70 -24 -8 -43 -13 -43 -11 0 3 -12 0 -26 -5 -23 -9 -35 -5 -88
29 -95 60 -165 73 -248 47z"/>
<path d="M1380 2099 c-70 -11 -228 -61 -272 -87 -47 -28 -33 -92 19 -92 37 0
77 -25 121 -75 50 -57 88 -163 101 -283 14 -125 -4 -168 -84 -210 -25 -13 -33
-21 -21 -22 34 0 97 43 112 79 24 57 14 230 -18 316 -49 130 -80 167 -165 205
-53 24 -67 46 -40 68 26 20 175 65 267 79 127 19 273 -1 397 -53 32 -14 66
-28 76 -31 27 -9 15 -36 -23 -53 -96 -42 -136 -82 -174 -179 -45 -115 -60
-295 -30 -354 20 -38 31 -49 67 -65 43 -19 68 -14 31 6 -91 51 -107 86 -93
212 14 133 49 228 106 291 41 46 81 69 116 69 32 0 49 22 45 57 -3 24 -12 31
-73 56 -157 63 -327 87 -465 66z"/>
<path d="M773 2030 c-42 -9 -69 -43 -83 -102 -18 -71 -7 -100 57 -152 79 -65
119 -59 148 24 22 61 19 120 -8 170 -27 51 -65 71 -114 60z m56 -25 c16 -8 34
-29 42 -47 29 -68 10 -186 -32 -209 -15 -8 -25 -3 -52 23 -19 18 -46 41 -61
51 -29 20 -33 47 -16 109 10 34 59 88 81 88 6 0 23 -7 38 -15z"/>
<path d="M1365 2022 c-84 -19 -150 -47 -90 -39 17 3 74 12 128 21 90 15 104
15 195 0 157 -27 160 -27 138 -13 -67 42 -252 57 -371 31z"/>
<path d="M2164 2027 c-73 -40 -98 -159 -51 -241 41 -73 73 -73 152 -1 48 44
50 48 50 98 -1 64 -36 132 -74 143 -40 12 -57 12 -77 1z m91 -40 c25 -25 34
-44 40 -87 7 -51 6 -55 -20 -75 -15 -11 -42 -34 -61 -52 -19 -18 -41 -30 -48
-27 -26 10 -50 69 -51 124 0 67 19 116 54 135 38 21 50 18 86 -18z"/>
<path d="M1266 1933 c9 -15 28 -39 41 -53 27 -28 71 -109 85 -155 17 -58 38
-181 38 -224 0 -49 -19 -121 -32 -121 -4 0 -8 -5 -8 -11 0 -16 -46 -54 -98
-80 -24 -13 -47 -29 -49 -37 -10 -24 27 -97 72 -142 62 -62 75 -89 75 -159 0
-49 4 -62 19 -71 28 -15 176 -13 189 3 5 6 11 44 14 82 3 67 5 72 47 115 46
48 101 135 101 161 0 10 -27 32 -65 54 -36 21 -65 41 -65 45 0 3 -8 15 -18 26
-44 49 -53 127 -28 259 22 112 61 204 113 260 29 32 54 75 44 75 -16 0 -84
-74 -103 -111 -54 -109 -77 -197 -85 -319 -5 -74 -3 -92 17 -138 26 -61 70
-103 134 -127 l46 -18 -27 -46 c-14 -25 -50 -71 -80 -101 l-53 -55 0 -77 0
-78 -90 0 -90 0 0 78 0 77 -53 55 c-30 30 -66 76 -81 102 l-27 46 35 12 c64
21 116 67 143 128 22 51 25 66 20 137 -8 106 -14 136 -44 225 -30 86 -63 143
-107 182 -40 35 -53 36 -30 1z"/>
<path d="M1082 1827 c-6 -7 -13 -25 -16 -39 -13 -76 -68 -154 -142 -203 -30
-20 -54 -38 -54 -40 0 -8 48 10 75 29 67 46 115 113 140 196 14 45 44 48 63 5
22 -49 42 -173 49 -295 7 -141 22 -188 22 -75 1 164 -29 355 -65 413 -16 24
-55 30 -72 9z"/>
<path d="M1847 1818 c-37 -58 -67 -248 -66 -413 0 -113 15 -66 22 75 7 115 27
241 46 293 19 50 46 35 85 -48 20 -42 45 -86 56 -97 11 -12 20 -25 20 -30 0
-4 5 -8 11 -8 6 0 24 -9 40 -21 16 -11 36 -19 45 -17 10 2 -4 16 -37 38 -60
40 -108 105 -128 170 -19 66 -25 75 -54 78 -18 2 -30 -4 -40 -20z"/>
<path d="M563 1764 c-50 -25 -57 -82 -18 -160 31 -62 82 -94 151 -96 41 0 51
4 72 28 33 37 27 106 -13 164 -44 63 -134 93 -192 64z m130 -34 c50 -34 70
-69 75 -125 4 -45 1 -54 -18 -68 -32 -23 -93 -15 -135 17 -48 37 -67 68 -72
120 -4 36 -1 48 17 66 18 18 30 21 62 17 21 -3 54 -15 71 -27z"/>
<path d="M2355 1773 c-49 -11 -85 -37 -115 -81 -28 -41 -31 -53 -27 -100 5
-64 23 -81 89 -82 69 0 122 32 153 94 39 79 32 136 -20 160 -33 16 -44 17 -80
9z m86 -34 c17 -17 20 -30 16 -65 -5 -52 -24 -83 -72 -120 -42 -31 -103 -40
-134 -18 -15 11 -21 26 -21 54 0 51 11 79 46 114 56 56 128 72 165 35z"/>
<path d="M1115 1588 c4 -29 8 -100 10 -158 2 -58 6 -114 9 -125 8 -38 47 -128
67 -156 10 -15 19 -31 19 -36 0 -4 20 -30 45 -57 l45 -48 0 -89 c0 -129 0
-129 190 -129 190 0 190 0 190 129 l0 89 43 47 c48 52 110 166 128 235 6 25
13 88 14 140 1 52 6 122 10 154 5 40 4 57 -3 52 -12 -7 -20 -65 -27 -208 -8
-150 -46 -250 -127 -339 -51 -55 -58 -73 -58 -152 0 -115 -2 -117 -169 -117
-170 0 -171 1 -171 114 0 77 -14 114 -56 151 -30 26 -77 108 -99 171 -18 51
-26 100 -30 180 -6 130 -14 192 -27 200 -5 3 -6 -16 -3 -48z"/>
<path d="M1262 666 c-94 -102 -118 -224 -58 -289 33 -35 59 -47 106 -47 123 0
179 116 116 243 -26 54 -95 137 -113 137 -6 0 -29 -20 -51 -44z m88 -26 c85
-87 98 -217 26 -261 -50 -31 -102 -25 -142 15 -44 44 -46 99 -8 172 26 50 71
104 86 104 5 0 22 -14 38 -30z"/>
<path d="M1282 575 c-18 -22 -42 -80 -42 -105 0 -31 44 -70 79 -70 42 0 65 37
58 92 -10 73 -63 119 -95 83z m52 -24 c9 -16 18 -47 22 -69 5 -35 3 -42 -16
-52 -30 -16 -68 -5 -75 23 -6 23 33 127 47 127 4 0 14 -13 22 -29z"/>
<path d="M1655 452 c-36 -30 -82 -106 -99 -161 -20 -70 -9 -118 38 -159 43
-37 85 -47 133 -32 128 41 135 181 16 328 -37 45 -57 51 -88 24z m77 -54 c57
-75 80 -155 59 -206 -7 -16 -30 -39 -53 -52 -36 -20 -45 -21 -79 -11 -76 23
-101 103 -61 194 25 55 69 107 92 107 10 0 29 -15 42 -32z"/>
<path d="M1658 343 c-46 -53 -52 -126 -14 -162 19 -17 32 -22 51 -17 35 9 65
41 65 70 0 55 -42 125 -76 126 -6 0 -18 -8 -26 -17z m61 -52 c28 -70 19 -101
-28 -101 -54 0 -62 37 -27 123 9 20 20 37 24 37 4 0 18 -26 31 -59z"/>
</g>
</svg>
